<svg width="671" height="696" viewBox="0 0 671 696" fill="none" xmlns="http://www.w3.org/2000/svg">
<path fill-rule="evenodd" clip-rule="evenodd" d="M1333.89 74.3652C1313.76 167.938 1272.43 251.165 1215.95 328.438C1155.6 411.008 1091.15 491.194 998.14 533.731C891.307 582.591 759.173 643.294 657.977 583.63C555.435 523.173 594.202 360.309 531.928 258.86C470.818 159.305 304.41 121.9 302.85 5.09626C301.314 -109.999 445.228 -165.173 525.161 -247.998C597.643 -323.102 649.845 -422.067 748.365 -456.537C851.435 -492.6 964.325 -473.804 1067.39 -437.713C1174.31 -400.269 1287.91 -349.783 1340.21 -249.283C1391.27 -151.165 1357.15 -33.7721 1333.89 74.3652Z" fill="#F7E9CC"/>
<path fill-rule="evenodd" clip-rule="evenodd" d="M1325.03 39.4717C1304.9 133.044 1263.57 216.272 1207.09 293.544C1146.74 376.114 1082.29 456.3 989.282 498.837C882.449 547.698 750.316 608.401 649.119 548.736C546.577 488.279 585.344 325.415 523.07 223.966C461.96 124.412 295.552 87.0064 293.992 -29.7973C292.456 -144.893 436.37 -200.066 516.304 -282.892C588.785 -357.996 640.987 -456.961 739.507 -491.431C842.578 -527.494 955.467 -508.697 1058.53 -472.607C1165.46 -435.162 1279.05 -384.677 1331.35 -284.177C1382.41 -186.059 1348.29 -68.6657 1325.03 39.4717Z" stroke="#E4A42C" stroke-width="0.990372"/>
</svg>
