<svg width="1440" height="208" viewBox="0 0 1440 208" fill="none" xmlns="http://www.w3.org/2000/svg">
<g clip-path="url(#clip0_11205_7046)">
<path d="M1391.68 133.599C1634.54 3.51948 2227.93 -12.9841 2786.11 237.632L2544.55 1691.9L-1779.17 1127.65L-1660.44 290.167C-1433.64 -33.3857 -810.747 77.502 -488.961 197.09C-162.399 318.452 63.4579 97.7486 387.079 86.8231C716.859 75.6896 1145.58 265.408 1391.68 133.599Z" fill="#907A85"/>
<path d="M1390.08 99.4221C1632.94 -30.6578 2226.33 -47.1613 2784.51 203.455L2542.95 1657.72L-1780.77 1093.48L-1662.04 255.99C-1435.24 -67.5629 -812.347 43.3247 -490.561 162.912C-164 284.275 61.8573 63.5713 385.478 52.6458C715.258 41.5124 1143.98 231.231 1390.08 99.4221Z" stroke="#907A85"/>
</g>
<defs>
<clipPath id="clip0_11205_7046">
<rect width="1440" height="208" fill="white"/>
</clipPath>
</defs>
</svg>
